<?xml version="1.0" standalone="no"?>
<!DOCTYPE svg PUBLIC "-//W3C//DTD SVG 20010904//EN"
 "http://www.w3.org/TR/2001/REC-SVG-20010904/DTD/svg10.dtd">
<svg version="1.0" xmlns="http://www.w3.org/2000/svg"
 width="65.000000pt" height="66.000000pt" viewBox="0 0 65.000000 66.000000"
 preserveAspectRatio="xMidYMid meet">

<g transform="translate(0.000000,66.000000) scale(0.100000,-0.100000)"
fill="#000000" stroke="none">
<path d="M313 548 c-19 -24 -26 -41 -16 -35 6 4 11 -3 11 -16 0 -15 -7 -23
-19 -24 -13 -1 -16 3 -12 15 4 13 2 12 -10 -3 -8 -10 -12 -26 -9 -34 3 -9 1
-12 -6 -7 -6 3 -14 2 -17 -4 -4 -6 -3 -10 2 -9 21 4 33 -2 33 -16 0 -8 -4 -15
-10 -15 -5 0 -10 4 -10 9 0 13 -28 7 -43 -9 -9 -10 -9 -11 1 -6 18 11 15 -9
-5 -25 -15 -12 -16 -12 -8 1 6 12 5 13 -6 2 -16 -15 -19 -133 -4 -144 6 -5 5
-8 -2 -8 -20 0 -15 -18 7 -25 11 -3 20 -13 20 -21 0 -8 5 -12 10 -9 6 4 8 11
4 16 -3 5 0 8 8 7 7 -2 12 2 11 8 -1 6 4 11 12 11 8 0 13 -5 12 -11 -1 -6 21
-13 51 -16 32 -4 52 -2 52 5 0 5 5 3 10 -5 7 -10 10 -11 10 -2 0 10 4 10 20 0
15 -10 20 -24 20 -60 0 -26 5 -50 11 -53 17 -11 19 -1 10 48 -5 30 -5 49 2 56
6 6 7 11 2 11 -5 0 0 7 11 15 12 9 14 14 6 15 -7 0 -10 5 -6 11 14 24 10 140
-5 152 -12 10 -13 9 -6 -2 5 -9 4 -12 -3 -7 -6 4 -9 13 -6 20 3 7 -3 19 -13
27 -16 13 -17 12 -4 -4 12 -15 12 -17 -3 -11 -10 4 -16 14 -13 23 2 9 -7 32
-19 51 -13 19 -24 31 -24 26 0 -4 9 -22 21 -39 23 -36 0 -11 -36 36 -11 15
-25 27 -32 27 -7 0 -13 4 -13 9 0 6 9 8 21 6 17 -4 19 -2 9 10 -15 18 -15 18
-27 3z m-20 -239 c-6 -21 -18 -25 -29 -7 -4 7 -3 8 4 4 7 -4 12 -2 12 3 0 6
-15 11 -32 11 -21 0 -28 3 -20 8 7 5 25 7 41 4 22 -3 28 -8 24 -23z m-80 -19
c-3 -11 -9 -20 -14 -20 -4 0 -7 9 -6 20 1 11 7 20 13 20 7 0 10 -8 7 -20z m37
16 c0 -3 -4 -8 -10 -11 -5 -3 -10 -1 -10 4 0 6 5 11 10 11 6 0 10 -2 10 -4z
m113 -38 c-2 -5 1 -8 7 -8 6 0 8 -4 5 -10 -9 -15 -25 -12 -25 5 0 25 -38 18
-43 -7 -4 -20 -4 -19 -6 5 -1 23 3 27 24 27 17 0 25 6 26 18 0 14 2 14 8 -3 5
-11 7 -23 4 -27z m-110 5 c-7 -2 -19 -2 -25 0 -7 3 -2 5 12 5 14 0 19 -2 13
-5z m97 -43 c8 -5 11 -10 5 -10 -5 0 -17 5 -25 10 -8 5 -10 10 -5 10 6 0 17
-5 25 -10z"/>
<path d="M226 148 c-2 -7 -8 -27 -13 -45 -9 -25 -8 -33 4 -37 8 -3 16 -6 17
-6 1 0 2 23 2 50 0 49 -3 63 -10 38z"/>
</g>
</svg>
